<svg width="122" height="29" viewBox="0 0 122 29" fill="none" xmlns="http://www.w3.org/2000/svg">
<path d="M8.21875 16.7734V18H2.53125V16.7734H8.21875ZM2.82812 6.625V18H1.32031V6.625H2.82812ZM13.2344 18.1562C12.6458 18.1562 12.112 18.0573 11.6328 17.8594C11.1589 17.6562 10.75 17.3724 10.4062 17.0078C10.0677 16.6432 9.80729 16.2109 9.625 15.7109C9.44271 15.2109 9.35156 14.6641 9.35156 14.0703V13.7422C9.35156 13.0547 9.45312 12.4427 9.65625 11.9062C9.85938 11.3646 10.1354 10.9062 10.4844 10.5312C10.8333 10.1562 11.2292 9.8724 11.6719 9.67969C12.1146 9.48698 12.5729 9.39062 13.0469 9.39062C13.651 9.39062 14.1719 9.49479 14.6094 9.70312C15.0521 9.91146 15.4141 10.2031 15.6953 10.5781C15.9766 10.9479 16.1849 11.3854 16.3203 11.8906C16.4557 12.3906 16.5234 12.9375 16.5234 13.5312V14.1797H10.2109V13H15.0781V12.8906C15.0573 12.5156 14.9792 12.151 14.8438 11.7969C14.7135 11.4427 14.5052 11.151 14.2188 10.9219C13.9323 10.6927 13.5417 10.5781 13.0469 10.5781C12.7188 10.5781 12.4167 10.6484 12.1406 10.7891C11.8646 10.9245 11.6276 11.1276 11.4297 11.3984C11.2318 11.6693 11.0781 12 10.9688 12.3906C10.8594 12.7812 10.8047 13.2318 10.8047 13.7422V14.0703C10.8047 14.4714 10.8594 14.849 10.9688 15.2031C11.0833 15.5521 11.2474 15.8594 11.4609 16.125C11.6797 16.3906 11.9427 16.599 12.25 16.75C12.5625 16.901 12.9167 16.9766 13.3125 16.9766C13.8229 16.9766 14.2552 16.8724 14.6094 16.6641C14.9635 16.4557 15.2734 16.1771 15.5391 15.8281L16.4141 16.5234C16.2318 16.7995 16 17.0625 15.7188 17.3125C15.4375 17.5625 15.0911 17.7656 14.6797 17.9219C14.2734 18.0781 13.7917 18.1562 13.2344 18.1562ZM23.1953 16.5547V12.2031C23.1953 11.8698 23.1276 11.5807 22.9922 11.3359C22.862 11.0859 22.6641 10.8932 22.3984 10.7578C22.1328 10.6224 21.8047 10.5547 21.4141 10.5547C21.0495 10.5547 20.7292 10.6172 20.4531 10.7422C20.1823 10.8672 19.9688 11.0312 19.8125 11.2344C19.6615 11.4375 19.5859 11.6562 19.5859 11.8906H18.1406C18.1406 11.5885 18.2188 11.2891 18.375 10.9922C18.5312 10.6953 18.7552 10.4271 19.0469 10.1875C19.3438 9.94271 19.6979 9.75 20.1094 9.60938C20.526 9.46354 20.9896 9.39062 21.5 9.39062C22.1146 9.39062 22.6562 9.49479 23.125 9.70312C23.599 9.91146 23.9688 10.2266 24.2344 10.6484C24.5052 11.0651 24.6406 11.5885 24.6406 12.2188V16.1562C24.6406 16.4375 24.6641 16.737 24.7109 17.0547C24.763 17.3724 24.8385 17.6458 24.9375 17.875V18H23.4297C23.3568 17.8333 23.2995 17.612 23.2578 17.3359C23.2161 17.0547 23.1953 16.7943 23.1953 16.5547ZM23.4453 12.875L23.4609 13.8906H22C21.5885 13.8906 21.2214 13.9245 20.8984 13.9922C20.5755 14.0547 20.3047 14.151 20.0859 14.2812C19.8672 14.4115 19.7005 14.5755 19.5859 14.7734C19.4714 14.9661 19.4141 15.1927 19.4141 15.4531C19.4141 15.7188 19.474 15.9609 19.5938 16.1797C19.7135 16.3984 19.8932 16.5729 20.1328 16.7031C20.3776 16.8281 20.6771 16.8906 21.0312 16.8906C21.474 16.8906 21.8646 16.7969 22.2031 16.6094C22.5417 16.4219 22.8099 16.1927 23.0078 15.9219C23.2109 15.651 23.3203 15.388 23.3359 15.1328L23.9531 15.8281C23.9167 16.0469 23.8177 16.2891 23.6562 16.5547C23.4948 16.8203 23.2786 17.0755 23.0078 17.3203C22.7422 17.5599 22.4245 17.7604 22.0547 17.9219C21.6901 18.0781 21.2786 18.1562 20.8203 18.1562C20.2474 18.1562 19.7448 18.0443 19.3125 17.8203C18.8854 17.5964 18.5521 17.2969 18.3125 16.9219C18.0781 16.5417 17.9609 16.1172 17.9609 15.6484C17.9609 15.1953 18.0495 14.7969 18.2266 14.4531C18.4036 14.1042 18.6589 13.8151 18.9922 13.5859C19.3255 13.3516 19.7266 13.1745 20.1953 13.0547C20.6641 12.9349 21.1875 12.875 21.7656 12.875H23.4453ZM28.3594 10.875V18H26.9141V9.54688H28.3203L28.3594 10.875ZM31 9.5L30.9922 10.8438C30.8724 10.8177 30.7578 10.8021 30.6484 10.7969C30.5443 10.7865 30.4245 10.7812 30.2891 10.7812C29.9557 10.7812 29.6615 10.8333 29.4062 10.9375C29.151 11.0417 28.9349 11.1875 28.7578 11.375C28.5807 11.5625 28.4401 11.7865 28.3359 12.0469C28.237 12.3021 28.1719 12.5833 28.1406 12.8906L27.7344 13.125C27.7344 12.6146 27.7839 12.1354 27.8828 11.6875C27.987 11.2396 28.1458 10.8438 28.3594 10.5C28.5729 10.151 28.8438 9.88021 29.1719 9.6875C29.5052 9.48958 29.901 9.39062 30.3594 9.39062C30.4635 9.39062 30.5833 9.40365 30.7188 9.42969C30.8542 9.45052 30.9479 9.47396 31 9.5ZM33.7812 11.3516V18H32.3359V9.54688H33.7031L33.7812 11.3516ZM33.4375 13.4531L32.8359 13.4297C32.8411 12.8516 32.9271 12.3177 33.0938 11.8281C33.2604 11.3333 33.4948 10.9036 33.7969 10.5391C34.099 10.1745 34.4583 9.89323 34.875 9.69531C35.2969 9.49219 35.763 9.39062 36.2734 9.39062C36.6901 9.39062 37.0651 9.44792 37.3984 9.5625C37.7318 9.67188 38.0156 9.84896 38.25 10.0938C38.4896 10.3385 38.6719 10.6562 38.7969 11.0469C38.9219 11.4323 38.9844 11.9036 38.9844 12.4609V18H37.5312V12.4453C37.5312 12.0026 37.4661 11.6484 37.3359 11.3828C37.2057 11.112 37.0156 10.9167 36.7656 10.7969C36.5156 10.6719 36.2083 10.6094 35.8438 10.6094C35.4844 10.6094 35.1562 10.6849 34.8594 10.8359C34.5677 10.987 34.3151 11.1953 34.1016 11.4609C33.8932 11.7266 33.7292 12.0312 33.6094 12.375C33.4948 12.7135 33.4375 13.0729 33.4375 13.4531ZM45.8438 6.625H47.3047L51.0312 15.8984L54.75 6.625H56.2188L51.5938 18H50.4531L45.8438 6.625ZM45.3672 6.625H46.6562L46.8672 13.5625V18H45.3672V6.625ZM55.3984 6.625H56.6875V18H55.1875V13.5625L55.3984 6.625ZM58.7344 13.8672V13.6875C58.7344 13.0781 58.8229 12.513 59 11.9922C59.1771 11.4661 59.4323 11.0104 59.7656 10.625C60.099 10.2344 60.5026 9.93229 60.9766 9.71875C61.4505 9.5 61.9818 9.39062 62.5703 9.39062C63.1641 9.39062 63.6979 9.5 64.1719 9.71875C64.651 9.93229 65.0573 10.2344 65.3906 10.625C65.7292 11.0104 65.987 11.4661 66.1641 11.9922C66.3411 12.513 66.4297 13.0781 66.4297 13.6875V13.8672C66.4297 14.4766 66.3411 15.0417 66.1641 15.5625C65.987 16.0833 65.7292 16.5391 65.3906 16.9297C65.0573 17.3151 64.6536 17.6172 64.1797 17.8359C63.7109 18.0495 63.1797 18.1562 62.5859 18.1562C61.9922 18.1562 61.4583 18.0495 60.9844 17.8359C60.5104 17.6172 60.1042 17.3151 59.7656 16.9297C59.4323 16.5391 59.1771 16.0833 59 15.5625C58.8229 15.0417 58.7344 14.4766 58.7344 13.8672ZM60.1797 13.6875V13.8672C60.1797 14.2891 60.2292 14.6875 60.3281 15.0625C60.4271 15.4323 60.5755 15.7604 60.7734 16.0469C60.9766 16.3333 61.2292 16.5599 61.5312 16.7266C61.8333 16.888 62.1849 16.9688 62.5859 16.9688C62.9818 16.9688 63.3281 16.888 63.625 16.7266C63.9271 16.5599 64.1771 16.3333 64.375 16.0469C64.5729 15.7604 64.7214 15.4323 64.8203 15.0625C64.9245 14.6875 64.9766 14.2891 64.9766 13.8672V13.6875C64.9766 13.2708 64.9245 12.8776 64.8203 12.5078C64.7214 12.1328 64.5703 11.8021 64.3672 11.5156C64.1693 11.224 63.9193 10.9948 63.6172 10.8281C63.3203 10.6615 62.9714 10.5781 62.5703 10.5781C62.1745 10.5781 61.8255 10.6615 61.5234 10.8281C61.2266 10.9948 60.9766 11.224 60.7734 11.5156C60.5755 11.8021 60.4271 12.1328 60.3281 12.5078C60.2292 12.8776 60.1797 13.2708 60.1797 13.6875ZM69.6875 10.875V18H68.2422V9.54688H69.6484L69.6875 10.875ZM72.3281 9.5L72.3203 10.8438C72.2005 10.8177 72.0859 10.8021 71.9766 10.7969C71.8724 10.7865 71.7526 10.7812 71.6172 10.7812C71.2839 10.7812 70.9896 10.8333 70.7344 10.9375C70.4792 11.0417 70.263 11.1875 70.0859 11.375C69.9089 11.5625 69.7682 11.7865 69.6641 12.0469C69.5651 12.3021 69.5 12.5833 69.4688 12.8906L69.0625 13.125C69.0625 12.6146 69.112 12.1354 69.2109 11.6875C69.3151 11.2396 69.474 10.8438 69.6875 10.5C69.901 10.151 70.1719 9.88021 70.5 9.6875C70.8333 9.48958 71.2292 9.39062 71.6875 9.39062C71.7917 9.39062 71.9115 9.40365 72.0469 9.42969C72.1823 9.45052 72.276 9.47396 72.3281 9.5ZM77.0156 18.1562C76.4271 18.1562 75.8932 18.0573 75.4141 17.8594C74.9401 17.6562 74.5312 17.3724 74.1875 17.0078C73.849 16.6432 73.5885 16.2109 73.4062 15.7109C73.224 15.2109 73.1328 14.6641 73.1328 14.0703V13.7422C73.1328 13.0547 73.2344 12.4427 73.4375 11.9062C73.6406 11.3646 73.9167 10.9062 74.2656 10.5312C74.6146 10.1562 75.0104 9.8724 75.4531 9.67969C75.8958 9.48698 76.3542 9.39062 76.8281 9.39062C77.4323 9.39062 77.9531 9.49479 78.3906 9.70312C78.8333 9.91146 79.1953 10.2031 79.4766 10.5781C79.7578 10.9479 79.9661 11.3854 80.1016 11.8906C80.237 12.3906 80.3047 12.9375 80.3047 13.5312V14.1797H73.9922V13H78.8594V12.8906C78.8385 12.5156 78.7604 12.151 78.625 11.7969C78.4948 11.4427 78.2865 11.151 78 10.9219C77.7135 10.6927 77.3229 10.5781 76.8281 10.5781C76.5 10.5781 76.1979 10.6484 75.9219 10.7891C75.6458 10.9245 75.4089 11.1276 75.2109 11.3984C75.013 11.6693 74.8594 12 74.75 12.3906C74.6406 12.7812 74.5859 13.2318 74.5859 13.7422V14.0703C74.5859 14.4714 74.6406 14.849 74.75 15.2031C74.8646 15.5521 75.0286 15.8594 75.2422 16.125C75.4609 16.3906 75.724 16.599 76.0312 16.75C76.3438 16.901 76.6979 16.9766 77.0938 16.9766C77.6042 16.9766 78.0365 16.8724 78.3906 16.6641C78.7448 16.4557 79.0547 16.1771 79.3203 15.8281L80.1953 16.5234C80.013 16.7995 79.7812 17.0625 79.5 17.3125C79.2188 17.5625 78.8724 17.7656 78.4609 17.9219C78.0547 18.0781 77.5729 18.1562 77.0156 18.1562Z" fill="#0B2330"/>
<path d="M119.846 14.0002H94M111.231 18.8002L119.846 14.0002L111.231 9.2002V18.8002Z" stroke="black"/>
</svg>
